<svg xmlns="http://www.w3.org/2000/svg" width="143.099" height="152.659" viewBox="0 0 143.099 152.659">
  <g id="box2.0" transform="translate(-16.032 0.001)">
    <g id="Сгруппировать_18" data-name="Сгруппировать 18" transform="translate(16.032 -0.001)">
      <g id="Сгруппировать_17" data-name="Сгруппировать 17" transform="translate(0 0)">
        <path id="Контур_9" data-name="Контур 9" d="M157.867,33.683,88.554.222a2.236,2.236,0,0,0-1.944,0L17.3,33.683A2.236,2.236,0,0,0,16.032,35.7V116.96a2.236,2.236,0,0,0,1.264,2.014l69.313,33.461a2.236,2.236,0,0,0,1.945,0l69.313-33.461a2.236,2.236,0,0,0,1.264-2.014V35.7a2.236,2.236,0,0,0-1.264-2.014ZM87.581,4.719,151.751,35.7l-18.6,8.979a2.218,2.218,0,0,0-.379-.239L69.036,13.671ZM63.987,16.2l64.075,30.933-13.124,6.336L50.89,22.548Zm65.576,35.175V74.794L117.3,80.712V57.293Zm25.1,64.183-64.841,31.3v-76.3L105.284,63.1a2.236,2.236,0,1,0-1.945-4.028L87.581,66.675l-6.2-2.994a2.236,2.236,0,0,0-1.945,4.028l5.909,2.853v76.3L20.5,115.557V39.26L69.88,63.1a2.236,2.236,0,1,0,1.944-4.028L23.412,35.7,45.625,24.973,112.8,57.4c.01.014.021.026.03.039V84.275a2.236,2.236,0,0,0,3.209,2.014l16.731-8.077a2.236,2.236,0,0,0,1.264-2.014V49.216l20.624-9.956v76.3Z" transform="translate(-16.032 0.001)" fill="#14814b"/>
      </g>
    </g>
    <g id="Сгруппировать_20" data-name="Сгруппировать 20" transform="translate(25.578 101.751)">
      <g id="Сгруппировать_19" data-name="Сгруппировать 19">
        <path id="Контур_10" data-name="Контур 10" d="M61.429,346.4l-10.172-4.91a2.236,2.236,0,1,0-1.945,4.028l10.171,4.91a2.236,2.236,0,1,0,1.945-4.028Z" transform="translate(-48.048 -341.262)" fill="#14814b"/>
      </g>
    </g>
    <g id="Сгруппировать_22" data-name="Сгруппировать 22" transform="translate(25.592 91.146)">
      <g id="Сгруппировать_21" data-name="Сгруппировать 21" transform="translate(0)">
        <path id="Контур_11" data-name="Контур 11" d="M70.824,315.339,51.3,305.917a2.236,2.236,0,1,0-1.944,4.028l19.519,9.422a2.236,2.236,0,1,0,1.944-4.028Z" transform="translate(-48.096 -305.694)" fill="#14814b"/>
      </g>
    </g>
  </g>
</svg>
