<svg xmlns="http://www.w3.org/2000/svg" width="155.266" height="112.838" viewBox="0 0 155.266 112.838">
  <g id="credit-card2.0" transform="translate(0 -69.408)">
    <g id="Сгруппировать_2" data-name="Сгруппировать 2" transform="translate(15.038 117.113)">
      <g id="Сгруппировать_1" data-name="Сгруппировать 1">
        <rect id="Прямоугольник_1" data-name="Прямоугольник 1" width="25.032" height="5.013" fill="#14814b"/>
      </g>
    </g>
    <g id="Сгруппировать_4" data-name="Сгруппировать 4" transform="translate(15.038 132.151)">
      <g id="Сгруппировать_3" data-name="Сгруппировать 3" transform="translate(0 0)">
        <rect id="Прямоугольник_2" data-name="Прямоугольник 2" width="37.564" height="5.013" fill="#14814b"/>
      </g>
    </g>
    <g id="Сгруппировать_6" data-name="Сгруппировать 6" transform="translate(15.038 147.189)">
      <g id="Сгруппировать_5" data-name="Сгруппировать 5" transform="translate(0 0)">
        <rect id="Прямоугольник_3" data-name="Прямоугольник 3" width="90.165" height="5.013" fill="#14814b"/>
      </g>
    </g>
    <g id="Сгруппировать_8" data-name="Сгруппировать 8" transform="translate(15.038 162.196)">
      <g id="Сгруппировать_7" data-name="Сгруппировать 7">
        <rect id="Прямоугольник_4" data-name="Прямоугольник 4" width="15.038" height="5.013" fill="#14814b"/>
      </g>
    </g>
    <g id="Сгруппировать_10" data-name="Сгруппировать 10" transform="translate(40.07 162.196)">
      <g id="Сгруппировать_9" data-name="Сгруппировать 9">
        <rect id="Прямоугольник_5" data-name="Прямоугольник 5" width="15.038" height="5.013" fill="#14814b"/>
      </g>
    </g>
    <g id="Сгруппировать_12" data-name="Сгруппировать 12" transform="translate(65.133 162.196)">
      <g id="Сгруппировать_11" data-name="Сгруппировать 11">
        <rect id="Прямоугольник_6" data-name="Прямоугольник 6" width="15.038" height="5.013" fill="#14814b"/>
      </g>
    </g>
    <g id="Сгруппировать_14" data-name="Сгруппировать 14" transform="translate(82.621 114.606)">
      <g id="Сгруппировать_13" data-name="Сгруппировать 13">
        <path id="Контур_7" data-name="Контур 7" d="M290.394,217.287a9.822,9.822,0,0,0-4.982,1.375,10.025,10.025,0,1,0,0,17.3,9.822,9.822,0,0,0,4.982,1.375,10.025,10.025,0,0,0,0-20.05Zm-8.741,14.854a4.654,4.654,0,0,1-1.284.183,5.013,5.013,0,0,1,0-10.025,5.914,5.914,0,0,1,1.284.183A9.725,9.725,0,0,0,281.652,232.141Zm8.741.183a5.013,5.013,0,1,1,5.013-5.013A5.013,5.013,0,0,1,290.394,232.325Z" transform="translate(-270.318 -217.286)" fill="#14814b"/>
      </g>
    </g>
    <g id="Сгруппировать_16" data-name="Сгруппировать 16" transform="translate(0 69.408)">
      <g id="Сгруппировать_15" data-name="Сгруппировать 15" transform="translate(0 0)">
        <path id="Контур_8" data-name="Контур 8" d="M150.041,103.023,44.96,69.83c-.734-.245-6.6-2.17-9.414,4.89L26.9,102.075H7.519A7.553,7.553,0,0,0,0,109.594v65.133a7.513,7.513,0,0,0,7.519,7.519H117.734A7.467,7.467,0,0,0,124,178.853a35.1,35.1,0,0,0,4.157.947,7.446,7.446,0,0,0,7.152-5.257l19.622-62.107C155.543,110.542,155.971,104.612,150.041,103.023ZM37.289,85.785l51.623,16.291H55.627L34.263,95.321Zm-4.524,14.335,6.266,1.987H32.154Zm87.476,74.608h-.031a2.518,2.518,0,0,1-2.506,2.506H7.519a2.518,2.518,0,0,1-2.506-2.506V109.594a2.518,2.518,0,0,1,2.506-2.506H117.734a2.518,2.518,0,0,1,2.506,2.506Zm10.3-1.681a2.529,2.529,0,0,1-3.148,1.62l-2.17-.672V129.339l17.391,5.5Zm13.571-43-18.889-5.96V113.568l21.915,6.908Zm6.052-19.1-1.5,4.768L125.1,108.28a7.509,7.509,0,0,0-7.366-6.174h-12.2L38.786,81.016l1.5-4.768a2.516,2.516,0,0,1,3.148-1.62l105.081,33.162a2.362,2.362,0,0,1,1.65,3.148Z" transform="translate(0 -69.408)" fill="#14814b"/>
      </g>
    </g>
  </g>
</svg>
