<svg xmlns="http://www.w3.org/2000/svg" width="135.437" height="135.434" viewBox="0 0 135.437 135.434">
  <g id="order-tracking2.0" transform="translate(-4.666 -4.666)">
    <path id="Контур_1" data-name="Контур 1" d="M77.23,26.015a36.213,36.213,0,1,0,10.6,25.608,36.213,36.213,0,0,0-10.6-25.608ZM74.408,74.408a32.221,32.221,0,1,1,9.439-22.786,32.221,32.221,0,0,1-9.439,22.786Z" transform="translate(1.506 1.506)" fill="#14814b"/>
    <path id="Контур_2" data-name="Контур 2" d="M136.39,118.475,95.25,77.339A48.513,48.513,0,1,0,77.339,95.25l41.14,41.14a12.667,12.667,0,1,0,17.914-17.914ZM21.6,84.662a44.6,44.6,0,1,1,63.067,0,44.6,44.6,0,0,1-63.067,0Zm111.972,48.905a8.689,8.689,0,0,1-12.272,0L80.789,93.06A47.945,47.945,0,0,0,93.06,80.789L133.569,121.3a8.688,8.688,0,0,1,0,12.271Z" transform="translate(0)" fill="#14814b"/>
    <path id="Контур_3" data-name="Контур 3" d="M58.407,54.869c2.912-5.064,5.617-11.324,5.587-17.074a14.108,14.108,0,1,0-28.217-.013c-.032,5.757,2.674,12.02,5.587,17.087-8.324,1.39-13.535,4.714-13.535,8.814,0,6.237,11.093,9.5,22.05,9.5s22.05-3.263,22.05-9.5c0-4.1-5.215-7.424-13.523-8.814ZM49.88,27.678A10.132,10.132,0,0,1,60,37.808c.05,8.3-6.956,18.485-10.119,22.659C46.714,56.3,39.713,46.122,39.763,37.8A10.129,10.129,0,0,1,49.88,27.678Zm0,41.515c-11.685.006-18.059-3.643-18.059-5.51,0-1.574,4.1-4.133,11.813-5.119A70.923,70.923,0,0,0,48.36,64.98a1.993,1.993,0,0,0,3.04,0,71.116,71.116,0,0,0,4.726-6.41c7.71.985,11.813,3.545,11.813,5.119,0,1.862-6.374,5.511-18.059,5.511Z" transform="translate(3.249 2.667)" fill="#14814b"/>
    <path id="Контур_4" data-name="Контур 4" d="M54.2,36.829a6.258,6.258,0,1,0-6.258,6.258A6.258,6.258,0,0,0,54.2,36.829Zm-8.524,0A2.267,2.267,0,1,1,47.938,39.1,2.267,2.267,0,0,1,45.671,36.829Z" transform="translate(5.191 3.633)" fill="#14814b"/>
    <path id="Контур_5" data-name="Контур 5" d="M100.588,94.021a2,2,0,0,0-2.822,2.822l13.487,13.487a2,2,0,0,0,2.826-2.822Z" transform="translate(12.975 12.45)" fill="#14814b"/>
    <path id="Контур_6" data-name="Контур 6" d="M91.227,84.659A2,2,0,1,0,88.4,87.481l4.06,4.06a2,2,0,1,0,2.821-2.822Z" transform="translate(11.662 11.137)" fill="#14814b"/>
  </g>
</svg>
